<?xml version="1.0" encoding="UTF-8" standalone="no"?>
<svg
   width="128"
   height="128"
   version="1.1"
   id="svg6"
   sodipodi:docname="icon.svg"
   inkscape:version="1.3 (0e150ed6c4, 2023-07-21)"
   inkscape:export-filename="icon.png"
   inkscape:export-xdpi="192"
   inkscape:export-ydpi="192"
   xmlns:inkscape="http://www.inkscape.org/namespaces/inkscape"
   xmlns:sodipodi="http://sodipodi.sourceforge.net/DTD/sodipodi-0.dtd"
   xmlns="http://www.w3.org/2000/svg"
   xmlns:svg="http://www.w3.org/2000/svg">
  <defs
     id="defs6" />
  <sodipodi:namedview
     id="namedview6"
     pagecolor="#ffffff"
     bordercolor="#000000"
     borderopacity="0.25"
     inkscape:showpageshadow="2"
     inkscape:pageopacity="0.0"
     inkscape:pagecheckerboard="0"
     inkscape:deskcolor="#d1d1d1"
     inkscape:zoom="1.5019531"
     inkscape:cx="-74.236672"
     inkscape:cy="34.954487"
     inkscape:window-width="1920"
     inkscape:window-height="974"
     inkscape:window-x="-11"
     inkscape:window-y="-11"
     inkscape:window-maximized="1"
     inkscape:current-layer="svg6" />
  <path
     style="fill:none;fill-opacity:1;stroke:#4c88bc;stroke-width:6;stroke-linecap:round;stroke-linejoin:round;stroke-miterlimit:3.1;stroke-dasharray:none;stroke-opacity:1;paint-order:stroke fill markers"
     d="m 16.864912,62.286156 c 0,0 35.222962,1.277146 36.068317,-0.425713 0.67863,-1.367008 16.496447,-41.885371 16.496447,-41.885371 0,0 10.253646,38.606352 11.400146,38.195842 2.116827,-0.75794 5.635678,-13.339071 8.030834,-8.656204 2.395168,4.682864 10.84867,46.544833 13.807414,46.828641 2.83653,0.2721 10.70778,-31.644807 10.70778,-31.644807"
     id="path23"
     sodipodi:nodetypes="cscsssc" />
  <path
     style="fill:none;fill-opacity:1;stroke:#dc3537;stroke-width:6;stroke-linecap:round;stroke-linejoin:round;stroke-miterlimit:3.1;stroke-dasharray:none;stroke-opacity:1;paint-order:stroke fill markers"
     d="m 16.875805,58.380248 43.038256,0.802735 5.977538,-14.449245 c 0,0 6.774536,40.538162 7.173042,38.531321 0.398489,-2.006842 9.564065,-21.2725 9.564065,-21.2725 0,0 7.173039,55.388771 7.970039,52.579191 0.797001,-2.80958 11.628855,-56.635169 11.628855,-56.635169 l 13.25811,-0.35907"
     id="path17"
     sodipodi:nodetypes="cccscscc" />
  <path
     style="fill:none;fill-opacity:1;stroke:#42dc35;stroke-width:6;stroke-linecap:round;stroke-linejoin:round;stroke-miterlimit:3.1;stroke-dasharray:none;stroke-opacity:1;paint-order:stroke fill markers"
     d="M 15.416112,61.459371 39.811644,89.810995 58.701627,39.18345 66.073939,60.455949 116.63573,60.054577"
     id="path28"
     sodipodi:nodetypes="ccccc" />
</svg>
